<svg fill="none" alt="ID Logistics" role="img" version="1.1" id="svg5" sodipodi:docname="markup-cropped(12).svg" inkscape:version="1.3 (0e150ed6c4, 2023-07-21)" xmlns:inkscape="http://www.inkscape.org/namespaces/inkscape" xmlns:sodipodi="http://sodipodi.sourceforge.net/DTD/sodipodi-0.dtd" xmlns="http://www.w3.org/2000/svg" xmlns:svg="http://www.w3.org/2000/svg" viewBox="0 0 550.28 367.53">
  <defs id="defs5"/>
  <sodipodi:namedview id="namedview5" pagecolor="#ffffff" bordercolor="#000000" borderopacity="0.25" inkscape:showpageshadow="2" inkscape:pageopacity="0.0" inkscape:pagecheckerboard="0" inkscape:deskcolor="#d1d1d1" inkscape:zoom="0.78" inkscape:cx="160.25641" inkscape:cy="54.487179" inkscape:window-width="1920" inkscape:window-height="1001" inkscape:window-x="-9" inkscape:window-y="-9" inkscape:window-maximized="1" inkscape:current-layer="svg5"/>
  <path fill-rule="evenodd" clip-rule="evenodd" d="m 544.41317,301.72382 c 1.89881,-3.92415 3.77857,-7.7365 5.85674,-11.42967 -2.04377,-2.42219 -8.76238,-5.54161 -16.99031,-5.54161 -17.3718,0 -28.50906,10.96772 -31.06763,24.24152 -5.35301,27.81859 29.99629,21.12579 26.44256,39.59473 -1.53268,7.96378 -8.60205,12.00281 -15.68616,12.00281 -7.88516,0 -13.14725,-4.73257 -13.32601,-12.69574 h -2.1734 c -1.64325,4.96354 -3.832,9.8116 -6.13501,14.66027 4.70124,3.46158 11.1606,4.96355 17.44797,4.96355 17.71089,0 32.32939,-10.62064 35.1736,-25.3964 5.08641,-26.43273 -30.21313,-23.54798 -27.21657,-39.12909 1.26976,-6.581 5.72343,-11.31357 14.74873,-11.31357 6.52019,0 10.10401,3.92415 11.20975,10.0432 z m -62.45898,50.21106 c -6.09693,4.96416 -15.03807,8.65672 -22.12218,8.65672 -17.60461,0 -24.54006,-13.85124 -20.73877,-33.58687 3.26377,-16.97066 14.4508,-35.32411 33.42776,-35.32411 7.4275,0 13.89793,4.38611 16.9295,10.62064 h 1.60148 c 1.6924,-4.03964 3.13416,-7.96747 4.9144,-11.89162 -5.91755,-3.69318 -14.68362,-5.6571 -22.22538,-5.6571 -24.91725,0 -48.13411,13.73637 -53.93311,43.86534 -4.55258,23.66408 11.02669,38.9018 35.48629,38.9018 7.66032,0 16.04122,-1.38648 23.58667,-4.96355 l 4.42665,-9.92771 z m -98.28497,14.08283 c 2.90134,-0.23097 5.82603,-0.57744 8.68191,-0.57744 2.85957,0 5.64665,0.34647 8.46076,0.57744 l 15.24017,-79.18515 c -2.89765,0.23098 -5.82602,0.57745 -8.6819,0.57745 -2.85957,0 -5.64727,-0.34647 -8.46076,-0.57745 z m -17.90194,-70.99099 c 6.97047,0 13.55884,0.80903 20.14782,1.61745 0.0799,-1.61745 0.0491,-3.23061 0.38517,-4.96355 0.30838,-1.61745 0.96445,-3.23122 1.50196,-4.84806 h -58.85979 c -0.0836,1.61684 -0.0498,3.23061 -0.36182,4.84806 -0.33173,1.73294 -0.9878,3.3461 -1.529,4.96355 6.10062,-0.80842 13.45932,-1.61745 21.573,-1.61745 l -13.66511,70.99099 c 2.90503,-0.23097 5.82971,-0.57744 8.68191,-0.57744 2.85588,0 5.65033,0.34647 8.46444,0.57744 z m -51.29837,6.6971 c 1.90249,-3.92415 3.77856,-7.7365 5.86043,-11.42967 -2.04747,-2.42219 -8.76607,-5.54161 -16.99032,-5.54161 -17.37549,0 -28.51275,10.96772 -31.06762,24.24152 -5.35732,27.81859 29.99259,21.12579 26.43887,39.59473 -1.53698,7.96378 -8.59837,12.00281 -15.68616,12.00281 -7.88516,0 -13.14357,-4.73257 -13.32663,-12.69574 h -2.1734 c -1.63895,4.96354 -3.83139,9.8116 -6.1344,14.66027 4.70493,3.46158 11.15999,4.96355 17.44736,4.96355 17.71519,0 32.33001,-10.62064 35.17053,-25.3964 5.09009,-26.43273 -30.20944,-23.54798 -27.2092,-39.12909 1.26607,-6.581 5.71975,-11.31357 14.74873,-11.31357 6.51589,0 10.10402,3.92415 11.20976,10.0432 z m -83.6892,64.29389 c 2.90134,-0.23097 5.82603,-0.57744 8.68191,-0.57744 2.85588,0 5.65033,0.34647 8.46076,0.57744 l 15.24017,-79.18515 c -2.90195,0.23098 -5.82602,0.57745 -8.6819,0.57745 -2.86019,0 -5.64727,-0.34647 -8.46076,-0.57745 z m -8.19415,-35.66689 c -2.90134,0.23098 -5.82234,0.57806 -8.6819,0.57806 -2.85589,0 -5.64727,-0.34708 -8.46076,-0.57806 l -5.19698,27.01017 c -3.0543,1.61377 -7.48095,3.23061 -13.1964,3.23061 -17.3718,0 -25.11935,-12.00281 -21.25356,-32.0892 3.7331,-19.39285 16.46079,-36.82178 35.54403,-36.82178 9.02898,0 16.48352,4.03964 20.2504,11.77184 h 1.60149 c 1.21262,-3.92415 3.13047,-7.96318 5.44454,-11.65635 -7.61794,-4.96416 -16.36066,-7.04357 -26.19069,-7.04357 -26.40017,0 -50.02493,14.66028 -55.55793,43.40339 -5.21971,27.12566 13.91328,39.36375 38.02641,39.36375 10.05855,0 20.67735,-2.31039 31.51729,-5.19514 z m -119.46973,-38.6702 c 17.14696,0 20.71543,17.08246 17.84849,31.97372 -3.68703,19.16187 -14.99629,36.93726 -32.596611,36.93726 -17.142664,0 -20.822322,-15.92696 -17.93204,-30.93371 4.975833,-25.85897 16.791898,-37.97727 32.680161,-37.97727 z m 36.39791,34.16861 c 3.33257,-17.89518 -1.80728,-41.09669 -34.37686,-41.09669 -28.459305,0 -48.610689,18.58812 -53.033651,41.55496 -5.040641,26.20544 9.101412,41.21218 34.361992,41.21218 28.001649,0 48.831959,-19.16187 53.048519,-41.67045 z M 32.276196,286.83256 c -2.901647,0.23098 -5.826146,0.57745 -8.685775,0.57745 -2.855882,0 -5.646894,-0.34647 -8.46082,-0.57745 L 0,365.44027 h 43.318367 c 0.08004,-1.61745 0.07243,-3.34671 0.385043,-4.96416 0.30887,-1.61315 0.983741,-3.34609 1.528994,-4.96355 -7.930801,0.80842 -16.544151,1.61746 -26.488198,1.61746 z" fill="var(--color-primary-text)" id="path1" style="fill: rgb(0, 69, 124); fill-opacity: 1; stroke-width: 6.143px; --darkreader-inline-fill: #82c9ff;" data-darkreader-inline-fill=""/>
  <path fill-rule="evenodd" clip-rule="evenodd" d="M 263.98817,58.537017 224.85233,261.87846 h 82.78188 c 60.60993,0 115.31337,-40.01061 128.30398,-107.49333 9.42214,-48.97141 -8.03382,-93.460881 -70.83988,-95.848113 z m 41.00762,17.317186 h 28.98207 c 41.67843,0 63.7398,22.096381 52.94162,78.234827 -13.44764,69.8699 -48.46153,90.4723 -89.25967,90.4723 h -25.12672 z" fill="var(--color-primary-text)" id="path2" style="fill: rgb(0, 69, 124); fill-opacity: 1; stroke-width: 6.143px; --darkreader-inline-fill: #82c9ff;" data-darkreader-inline-fill=""/>
  <mask id="mask0_757_3823" maskUnits="userSpaceOnUse" x="17" y="0" width="70" height="34">
    <path d="M 17.5923,0.169434 H 86.5962 V 33.2271 H 17.5923 Z" fill="#ffffff" id="path3" style="--darkreader-inline-fill: #e8e6e3;" data-darkreader-inline-fill=""/>
  </mask>
  <path fill-rule="evenodd" clip-rule="evenodd" d="m 435.91792,53.588767 c -0.0534,-14.668016 -2.40622,-16.88607 -6.39425,-26.983078 L 509.03378,0 531.96069,80.79502 c -8.29674,-0.492668 -17.07386,0.493284 -27.80753,6.407767 L 498.78848,54.193361 C 469.52076,108.8796 324.64971,241.89281 108.06955,192.13572 c 1.40674,-1.21693 2.48238,-5.56863 3.14951,-7.41706 199.76923,27.12197 335.87052,-98.613014 355.86538,-143.333337 z" fill="var(--color-arrow-logo)" id="path4" style="fill: rgb(234, 25, 37); fill-opacity: 1; stroke-width: 6.143px; --darkreader-inline-fill: #ec2f3a;" data-darkreader-inline-fill=""/>
  <path fill-rule="evenodd" clip-rule="evenodd" d="m 150.71366,263.37121 c 7.50736,-0.5971 15.07247,-1.49398 22.46189,-1.49398 7.38942,0 14.61052,0.89688 21.88567,1.49398 L 234.48271,58.535481 c -7.50367,0.596916 -15.06817,1.494163 -22.45758,1.494163 -7.39311,0 -14.61114,-0.897247 -21.88629,-1.494163 z" fill="var(--color-primary-text)" id="path5" style="fill: rgb(0, 69, 124); fill-opacity: 1; stroke-width: 6.143px; --darkreader-inline-fill: #82c9ff;" data-darkreader-inline-fill=""/>
</svg>